<?xml version="1.0" standalone="no"?>
<!DOCTYPE svg PUBLIC "-//W3C//DTD SVG 20010904//EN"
 "http://www.w3.org/TR/2001/REC-SVG-20010904/DTD/svg10.dtd">
<svg version="1.0" xmlns="http://www.w3.org/2000/svg"
 width="920.000000pt" height="920.000000pt" viewBox="0 0 920.000000 920.000000"
 preserveAspectRatio="xMidYMid meet">

<g transform="translate(0.000000,920.000000) scale(0.100000,-0.100000)"
fill="#000000" stroke="none">
<path d="M4280 9184 c-581 -68 -1112 -344 -1478 -769 -322 -374 -502 -845
-502 -1311 l0 -84 53 0 c107 0 229 -50 342 -140 l60 -48 1 157 c0 93 7 201 18
269 30 197 112 408 192 496 l33 36 103 0 c203 0 354 -65 495 -213 123 -130
217 -296 308 -545 l48 -130 45 61 c69 93 128 153 229 229 149 112 305 183 493
224 117 26 356 24 490 -5 312 -66 571 -248 726 -510 41 -70 44 -73 53 -50 210
547 404 823 640 909 31 11 61 23 68 25 15 5 -18 89 -95 240 -293 574 -862 989
-1540 1125 -81 16 -190 33 -242 38 -137 14 -406 12 -540 -4z"/>
<path d="M3257 7433 c-12 -19 -48 -157 -64 -243 -25 -134 -25 -598 0 -780 45
-322 96 -576 238 -1200 202 -882 271 -1246 319 -1692 89 -822 16 -1530 -221
-2160 -86 -228 -122 -299 -268 -533 -229 -366 -260 -448 -196 -515 42 -44 190
-113 319 -149 125 -35 416 -85 591 -101 140 -12 574 -30 625 -25 19 2 91 5
160 6 239 4 511 33 740 79 240 48 400 110 472 183 32 31 38 44 38 81 0 71
-110 281 -308 586 -99 153 -182 375 -246 660 -52 234 -61 318 -61 583 l0 249
-28 -34 c-137 -164 -452 -721 -585 -1033 -50 -118 -117 -306 -135 -380 -11
-48 -5 232 8 355 35 337 126 666 270 981 116 254 260 496 540 909 606 891 796
1220 1005 1735 281 693 448 1552 465 2390 0 27 -49 50 -105 49 -60 -1 -114
-30 -177 -97 -104 -110 -188 -262 -383 -692 -314 -691 -452 -929 -654 -1122
-100 -96 -201 -156 -304 -179 -110 -25 -511 -15 -630 15 -307 77 -551 306
-754 706 -88 173 -158 354 -288 740 -59 176 -124 356 -142 401 -44 102 -102
191 -142 215 -31 19 -91 26 -99 12z"/>
<path d="M4870 7053 c-95 -10 -194 -39 -290 -85 -91 -44 -115 -62 -195 -142
-74 -74 -100 -107 -134 -176 -167 -340 -24 -722 334 -891 113 -53 183 -70 320
-76 291 -13 536 98 690 313 81 111 117 228 116 369 -1 145 -43 269 -133 390
-152 205 -440 326 -708 298z"/>
<path d="M2340 6627 c0 -26 81 -291 186 -612 268 -816 414 -1385 563 -2195
105 -571 240 -1559 277 -2033 4 -49 10 -85 14 -80 11 11 74 458 99 693 34 314
44 495 45 750 l0 245 -58 280 c-32 154 -60 291 -63 305 -33 162 -203 945 -223
1025 -5 22 -48 207 -96 410 -47 204 -95 392 -106 419 -110 281 -388 683 -537
778 -48 30 -101 38 -101 15z"/>
</g>
</svg>
